<svg xmlns="http://www.w3.org/2000/svg"  viewBox="0 0 100 100" width="100px" height="100px"><path d="M51.5,99c-15.217,0-24.422-9.441-28.832-15.661c-0.482-0.679-0.4-5.641-0.769-6.227 C14.577,75.039,9,71.839,9,62.5c0-4.472,1.682-8.371,4.645-11.055C13.271,49.572,13,47.261,13,44.5C13,19.066,35.765,5,51.5,5 S90,19.066,90,44.5c0,2.761-0.271,5.072-0.645,6.945C92.318,54.129,94,58.028,94,62.5c0,9.339-5.07,16.859-12.393,18.933 C77.861,87.383,68.379,99,51.5,99z" opacity=".35"/><path fill="#f2f2f2" d="M49.5,97c-16.879,0-26.361-11.617-30.107-17.567C12.07,77.359,7,69.839,7,60.5 c0-4.472,1.682-8.371,4.645-11.055C11.271,47.572,11,45.261,11,42.5C11,17.066,33.765,3,49.5,3S88,17.066,88,42.5 c0,2.761-0.271,5.072-0.645,6.945C90.318,52.129,92,56.028,92,60.5c0,9.339-5.07,16.859-12.393,18.933 C75.861,85.383,66.379,97,49.5,97z"/><path fill="#ffb789" d="M49.5,90.5c18,0,26-17,26-17c6,0,10-6,10-13s-6-8-6-8s2-3,2-10c0-22-20-33-32-33s-32,11-32,33 c0,7,2,10,2,10s-6,1-6,8s4,13,10,13C23.5,73.5,31.5,90.5,49.5,90.5z"/><path fill="#40396e" d="M69.518,63.703C66.52,66.471,60,69,49.5,69c-9.5,0-17.02-2.529-20.018-5.297 C28.004,64.572,27,66.161,27,68c0,2.761,2.239,5,5,5c0.346,0,0.684-0.035,1.01-0.102C33.01,72.933,33,72.965,33,73 c0,2.761,2.239,5,5,5c1.28,0,2.436-0.496,3.32-1.287C42.022,78.627,43.843,80,46,80c1.364,0,2.598-0.549,3.5-1.435 C50.402,79.451,51.636,80,53,80c2.157,0,3.978-1.373,4.68-3.287C58.564,77.504,59.72,78,61,78c2.761,0,5-2.239,5-5 c0-0.035-0.01-0.067-0.01-0.102C66.316,72.965,66.654,73,67,73c2.761,0,5-2.239,5-5C72,66.161,70.996,64.572,69.518,63.703z"/><path fill="#f2f2f2" d="M45,56c0,1.807-0.855,3.121-1.612,4.461c-0.757,1.338-1.416,2.701-2.648,3.198 C40.189,63.881,39.605,64,39,64c-3.314,0-6-3.582-6-8s2.686-8,6-8S45,51.582,45,56z"/><path fill="#70bfff" d="M42.385,49.397C42.096,49.338,41.802,49.3,41.5,49.3c-3.038,0-5.5,3.067-5.5,6.85S38.462,63,41.5,63 c0.147,0-0.06-0.452,0.084-0.466C43.412,61.163,45,58.995,45,56C45,53.257,43.963,50.838,42.385,49.397z"/><ellipse cx="41.667" cy="56.5" fill="#40396e" rx="3.333" ry="4.5"/><circle cx="41" cy="55" r="1" fill="#f2f2f2"/><path fill="#f2f2f2" d="M54,56c0,2.299,1.369,4.118,2.534,5.577c0.563,0.706,0.586,1.521,1.321,1.896 C58.521,63.814,59.244,64,60,64c3.314,0,6-3.582,6-8s-2.686-8-6-8S54,51.582,54,56z"/><path fill="#70bfff" d="M56.615,49.397c0.289-0.058,0.583-0.097,0.885-0.097c3.038,0,5.5,3.067,5.5,6.85S60.538,63,57.5,63 c-0.147,0-0.292-0.013-0.436-0.027c-0.86-0.645-1.276-1.783-1.807-2.887C54.66,58.843,54,57.586,54,56 C54,53.257,55.037,50.838,56.615,49.397z"/><ellipse cx="57.333" cy="56.5" fill="#40396e" rx="3.333" ry="4.5"/><circle cx="58" cy="55" r="1" fill="#f2f2f2"/><ellipse cx="50" cy="67" fill="#ffb789" rx="11" ry="9"/><path fill="#40396e" d="M46,48c0,0,0-9-9-9c-6,0-6,9-6,9S37,40,46,48z"/><path fill="#40396e" d="M53,48c0,0,0-9,9-9c6,0,6,9,6,9S62,40,53,48z"/><path fill="#de5147" d="M80,33l-7-13l-14-9l-9-1.35l-0.291-0.087L49.708,9.5v0.062L49.5,9.5v0.181L40.708,11l-14,9l-7,13 L18.36,45.022l1.298,8.983C19.657,54.006,21,53,24,56c0,0-0.202-16.618,25.854-16.98C75.91,39.382,75,56,75,56 c3-3,4.983-1.83,4.983-1.83l1.365-9.147L80,33z"/><circle cx="50" cy="25" r="11" fill="#f2f2f2"/><polygon fill="#de5147" points="55.299,30.968 53.034,24.174 50,27.966 46.966,24.174 44.701,30.968 41.855,30.02 45.864,17.995 50,23.165 54.136,17.995 58.145,30.02"/><path fill="#b73b3b" d="M52.68,39.136c0.231,0.016,0.458,0.034,0.684,0.052c13.813,1.073,18.825,7.184,20.627,11.736 C75.385,49.174,77,46.411,77,43c0-6-9-15-27-15s-27,9-27,15c0,3.024,1.267,5.532,2.525,7.281 c2.205-4.472,7.621-10.086,20.871-11.097c0.214-0.017,0.427-0.035,0.645-0.049c0.274-0.018,0.551-0.034,0.832-0.047 c0.643-0.033,1.298-0.058,1.981-0.067c0.684,0.01,1.341,0.035,1.985,0.068C52.124,39.101,52.403,39.118,52.68,39.136z"/><path fill="none" stroke="#40396e" stroke-linecap="round" stroke-linejoin="round" stroke-miterlimit="10" stroke-width="3" d="M49.5,90.5c18,0,26-17,26-17c6,0,10-6,10-13s-6-8-6-8s2-3,2-10c0-22-20-33-32-33s-32,11-32,33c0,7,2,10,2,10s-6,1-6,8s4,13,10,13 C23.5,73.5,31.5,90.5,49.5,90.5z"/></svg>